<svg xmlns="http://www.w3.org/2000/svg" xmlns:xlink="http://www.w3.org/1999/xlink" width="100" zoomAndPan="magnify" viewBox="0 0 75 74.999997" height="100" preserveAspectRatio="xMidYMid meet" version="1.0"><defs><filter x="0%" y="0%" width="100%" height="100%" id="425a1d4297"><feColorMatrix values="0 0 0 0 1 0 0 0 0 1 0 0 0 0 1 0 0 0 1 0" color-interpolation-filters="sRGB"/></filter><clipPath id="f68ecdffc0"><path d="M 8 8 L 75 8 L 75 67.421875 L 8 67.421875 Z M 8 8 " clip-rule="nonzero"/></clipPath><clipPath id="ead2b574f5"><path d="M 8 9 L 75 9 L 75 67.421875 L 8 67.421875 Z M 8 9 " clip-rule="nonzero"/></clipPath><mask id="c5eb4d74f1"><g filter="url(#425a1d4297)"><rect x="-7.5" width="90" fill="#000000" y="-7.5" height="89.999996" fill-opacity="0.3"/></g></mask><clipPath id="630bd91a78"><path d="M 0.398438 1 L 67 1 L 67 58.421875 L 0.398438 58.421875 Z M 0.398438 1 " clip-rule="nonzero"/></clipPath><clipPath id="9d846f4d99"><rect x="0" width="67" y="0" height="59"/></clipPath><clipPath id="1e98c00cb7"><path d="M 8 15 L 64 15 L 64 67.421875 L 8 67.421875 Z M 8 15 " clip-rule="nonzero"/></clipPath><clipPath id="ae28d1e573"><path d="M 7 7.421875 L 75 7.421875 L 75 67.421875 L 7 67.421875 Z M 7 7.421875 " clip-rule="nonzero"/></clipPath></defs><g clip-path="url(#f68ecdffc0)"><path fill="#ffffff" d="M 75.105469 62.804688 L 74.863281 67.488281 L 57.8125 67.488281 L 58.117188 62.804688 Z M 71.1875 42.28125 C 71.1875 42.28125 71.625 34.632812 65.191406 26.714844 C 66.667969 19.394531 64.6875 9.585938 62.8125 8.144531 C 59.269531 8.351562 51.867188 10.945312 47.757812 17.46875 C 43.59375 15.984375 37.722656 15.59375 31.796875 17.070312 C 31.796875 17.070312 24.785156 9.707031 16.5625 8.144531 C 12.570312 11.054688 13.820312 25.234375 13.78125 27.015625 C 11 31.972656 0.480469 47.121094 17.769531 57.742188 C 15.472656 63.652344 14.558594 67.40625 14.558594 67.40625 L 57.1875 67.488281 C 57.1875 67.488281 57.976562 59.179688 58.824219 55.070312 C 59.667969 50.957031 60.457031 44.0625 62.265625 43.257812 C 64.078125 42.449219 65.492188 44.367188 65.492188 44.367188 C 65.492188 44.367188 67.539062 39.347656 69.132812 43.820312 C 68.675781 42.128906 71.1875 42.28125 71.1875 42.28125 Z M 71.1875 42.28125 " fill-opacity="1" fill-rule="nonzero"/></g><path fill="#66fcf1" d="M 59.929688 48.65625 C 61.257812 41.945312 63.980469 42.613281 65.492188 44.367188 C 65.734375 42.308594 67.910156 41.644531 69.179688 43.277344 C 74.074219 38.441406 74.863281 52.789062 74.863281 52.789062 L 74.863281 62.078125 C 74.863281 62.078125 73.765625 65.644531 66.246094 65.644531 C 59.6875 65.644531 57.8125 62.746094 57.8125 62.746094 C 57.8125 62.746094 58.597656 55.367188 59.929688 48.65625 Z M 32.007812 17.160156 C 30.558594 14.988281 21.214844 7.421875 16.683594 8.152344 C 11.542969 14.078125 14.023438 27.015625 14.023438 27.015625 C 14.023438 27.015625 9.777344 32.691406 9.273438 38.175781 C 9.4375 42.21875 20.433594 49.304688 33.003906 38.78125 C 44.953125 28.78125 35.332031 16.554688 35.332031 16.554688 C 35.332031 16.554688 33.699219 16.671875 32.007812 17.160156 Z M 61.785156 11.65625 L 57.8125 19.71875 C 57.8125 19.71875 61.363281 22.660156 62.300781 25.199219 C 63.234375 22.78125 63.484375 16.617188 61.785156 11.65625 Z M 61.785156 11.65625 " fill-opacity="1" fill-rule="nonzero"/><g clip-path="url(#ead2b574f5)"><g mask="url(#c5eb4d74f1)"><g transform="matrix(1, 0, 0, 1, 8, 9)"><g clip-path="url(#9d846f4d99)"><g clip-path="url(#630bd91a78)"><path fill="#c5c6c7" d="M 66.863281 58.488281 C 66.863281 58.488281 66.863281 58.488281 59.515625 58.488281 C 65.230469 57.96875 65.925781 42.5625 65.925781 42.5625 Z M 12.953125 10.71875 C 12.953125 10.71875 9.808594 4.191406 9.285156 2.65625 C 7.957031 5.882812 7.738281 13.945312 8.773438 16.199219 C 10.8125 13.714844 12.953125 10.71875 12.953125 10.71875 Z M 49.222656 58.488281 C 49.894531 54.273438 50.816406 48.476562 51.558594 43.800781 C 51.558594 43.804688 51.554688 43.804688 51.550781 43.804688 L 52.308594 35.414062 C 52.261719 35.472656 52.199219 35.554688 52.125 35.664062 C 51.550781 36.496094 50.246094 38.894531 49.191406 44.59375 C 44.875 45.878906 39.1875 46.765625 31.703125 46.816406 C 2.683594 46.617188 0.707031 33.890625 0.707031 33.890625 C 0.707031 33.890625 0.183594 35.605469 1.296875 38.410156 C 0.972656 38.136719 0.726562 37.917969 0.589844 37.785156 C 1.445312 44.210938 9.808594 49.167969 9.808594 49.167969 L 6.558594 58.488281 C 6.558594 58.488281 9.972656 58.488281 13.679688 58.488281 C 15.9375 51.121094 18.664062 51.3125 18.664062 51.3125 C 24.34375 52.554688 29.800781 52.890625 31.703125 52.890625 C 33.609375 52.890625 39.0625 52.554688 44.746094 51.3125 C 44.746094 51.3125 46.140625 51.214844 47.757812 53.851562 C 47.171875 57.605469 46.980469 58.484375 46.980469 58.484375 Z M 39.601562 8.46875 L 42.949219 9.429688 C 42.949219 9.429688 44.195312 4.933594 49.660156 1.136719 C 45.851562 2.175781 41.738281 4.925781 39.601562 8.46875 Z M 13.484375 1.136719 C 18.945312 4.933594 20.195312 9.429688 20.195312 9.429688 L 23.542969 8.46875 C 21.40625 4.925781 17.292969 2.175781 13.484375 1.136719 Z M 33.914062 36.554688 C 33.914062 36.554688 31.171875 37.1875 28.835938 36.488281 C 29.15625 39.175781 33.105469 39.417969 33.914062 36.554688 Z M 33.914062 36.554688 " fill-opacity="1" fill-rule="nonzero"/></g></g></g></g></g><g clip-path="url(#1e98c00cb7)"><path fill="#ffffff" d="M 14.441406 15.976562 C 14.441406 15.976562 13.828125 24.398438 16.707031 28.425781 C 13.660156 30.640625 8.433594 37.839844 8.582031 43.699219 C 7.433594 39.890625 9.082031 33.382812 13.636719 27.558594 C 13.175781 24.113281 13.636719 19.371094 14.441406 15.976562 Z M 58.941406 59.523438 C 60.574219 47.417969 63.363281 43.710938 63.363281 43.710938 C 58.773438 42.472656 58.519531 54.140625 58.941406 59.523438 Z M 11.855469 51.5625 C 11.855469 51.5625 17.46875 56.699219 20.914062 57.242188 C 19.523438 58.996094 16.707031 67.488281 16.707031 67.488281 L 14.203125 67.488281 L 17.46875 57.96875 C 17.46875 57.96875 11.984375 55.253906 11.855469 51.5625 Z M 11.855469 51.5625 " fill-opacity="1" fill-rule="nonzero"/></g><g clip-path="url(#ae28d1e573)"><path fill="#0b0c10" d="M 75.769531 67.488281 C 74.996094 67.488281 73.984375 67.488281 73.984375 67.488281 C 73.96875 64.542969 74.488281 49.324219 72.945312 44.195312 C 72.128906 41.484375 69.578125 42.78125 69.234375 45.039062 C 69.003906 43.90625 68.738281 42.6875 67.582031 42.804688 C 66.148438 42.957031 65.5625 45.484375 65.5625 45.484375 C 65.5625 45.484375 64.414062 43.640625 63.363281 43.710938 C 61.699219 43.820312 60.605469 46.261719 59.808594 51.457031 C 59.363281 54.378906 58.210938 67.488281 58.210938 67.488281 L 56.726562 67.488281 C 56.726562 67.488281 57.542969 58.449219 57.804688 56.492188 L 57.8125 56.4375 L 58.023438 54.910156 C 58.5 51.554688 59.03125 48.515625 59.542969 46.589844 C 60.878906 41.578125 63.90625 41.050781 65.273438 43.457031 C 65.972656 40.878906 69.011719 40.449219 69.332031 42.71875 C 69.433594 42.242188 69.90625 41.671875 70.570312 41.4375 C 70.308594 37.566406 68.613281 32.898438 64.53125 27.316406 C 65.425781 25.441406 66.375 16.625 62.628906 8.875 C 60.734375 8.878906 54.386719 10.425781 48.261719 17.089844 C 49.300781 17.449219 50.28125 17.890625 51.101562 18.429688 C 50.847656 18.4375 45.25 16.851562 39.65625 16.851562 C 34.058594 16.851562 28.464844 18.4375 28.210938 18.429688 C 29.03125 17.890625 30.007812 17.449219 31.050781 17.089844 C 24.921875 10.425781 18.578125 8.878906 16.683594 8.875 C 12.9375 16.625 13.886719 25.441406 14.78125 27.316406 C -0.00390625 47.542969 16.53125 55.738281 18.886719 57.574219 C 17.558594 60.296875 15.109375 67.488281 15.109375 67.488281 L 13.46875 67.488281 C 13.46875 67.488281 15.054688 62.476562 16.992188 58 C 2.234375 49.324219 7.007812 35.117188 13.054688 27.558594 C 11.242188 16.859375 14.988281 7.667969 16.441406 7.421875 C 26.054688 9.261719 30.96875 14.992188 32.253906 16.714844 C 33.980469 16.226562 36.816406 15.523438 39.65625 15.523438 C 42.492188 15.519531 45.328125 16.226562 47.058594 16.714844 C 48.34375 14.992188 53.257812 9.261719 62.871094 7.421875 C 64.324219 7.667969 68.070312 16.859375 66.257812 27.558594 C 69.125 31.144531 71.707031 36.230469 72.050781 41.507812 C 72.550781 41.726562 73.074219 42.160156 73.589844 42.894531 C 74.550781 44.269531 74.695312 46.042969 75.148438 49.609375 C 75.566406 52.90625 75.769531 65.539062 75.769531 67.488281 Z M 61.785156 11.65625 C 61.785156 11.65625 59.03125 15.5625 57.003906 19.714844 C 58.363281 20.605469 61.15625 23.507812 62.300781 25.199219 C 62.835938 24.234375 60.042969 20.132812 58.621094 19.335938 C 60.101562 17.765625 61.785156 11.65625 61.785156 11.65625 Z M 17.285156 11.65625 C 17.285156 11.65625 20.042969 15.5625 22.070312 19.714844 C 20.710938 20.605469 17.914062 23.507812 16.773438 25.199219 C 16.238281 24.234375 19.027344 20.132812 20.449219 19.335938 C 18.96875 17.765625 17.285156 11.65625 17.285156 11.65625 Z M 24.976562 31.195312 C 21.898438 31.921875 19.816406 34.996094 19.179688 37.539062 C 19.082031 37.929688 19.289062 38.238281 19.722656 38.34375 C 20.421875 38.519531 21.691406 38.164062 21.878906 37.414062 C 22.121094 36.4375 22.539062 35.546875 23.113281 34.773438 C 23.546875 34.191406 24.394531 33.1875 25.191406 32.988281 C 25.832031 32.828125 26.445312 33.875 26.773438 34.4375 L 26.851562 34.570312 C 27.417969 35.523438 27.875 36.628906 28.207031 37.851562 C 28.328125 38.28125 28.746094 38.453125 29.214844 38.453125 C 29.410156 38.453125 29.613281 38.421875 29.804688 38.371094 C 30.585938 38.15625 31.035156 37.648438 30.894531 37.132812 C 29.664062 32.625 27.617188 30.574219 24.976562 31.195312 Z M 59.890625 37.132812 C 58.660156 32.625 56.613281 30.574219 53.972656 31.195312 C 50.898438 31.921875 48.8125 34.996094 48.175781 37.539062 C 48.117188 37.777344 48.171875 37.992188 48.332031 38.144531 C 48.664062 38.464844 49.328125 38.421875 49.792969 38.289062 C 50.375 38.121094 50.78125 37.792969 50.875 37.414062 C 51.121094 36.4375 51.535156 35.546875 52.109375 34.773438 C 52.542969 34.191406 53.390625 33.1875 54.1875 32.988281 C 54.828125 32.828125 55.441406 33.875 55.769531 34.4375 L 55.847656 34.570312 C 56.414062 35.523438 56.871094 36.628906 57.207031 37.851562 C 57.28125 38.125 57.496094 38.324219 57.816406 38.40625 C 57.9375 38.4375 58.074219 38.453125 58.210938 38.453125 C 58.730469 38.453125 59.324219 38.242188 59.652344 37.910156 C 59.878906 37.679688 59.964844 37.402344 59.890625 37.132812 Z M 44 38.488281 C 43.671875 38.660156 43.515625 39.222656 43.835938 39.820312 C 44.019531 40.167969 43.824219 40.53125 43.6875 40.714844 C 43.335938 41.191406 42.703125 41.484375 42.21875 41.394531 C 41.378906 41.238281 40.875 40.253906 40.53125 39.414062 C 40.367188 39.019531 40.03125 38.777344 39.644531 38.777344 C 39.261719 38.777344 38.921875 39.019531 38.761719 39.414062 C 38.476562 40.101562 37.949219 41.386719 37.074219 41.550781 C 36.699219 41.617188 36.238281 41.4375 35.867188 41.082031 C 35.320312 40.53125 35.484375 39.8125 35.542969 39.617188 C 35.550781 39.601562 35.554688 39.589844 35.558594 39.566406 L 35.6875 39.226562 L 35.625 39.226562 C 35.640625 38.871094 35.5 38.570312 35.246094 38.464844 C 35.027344 38.378906 34.707031 38.445312 34.460938 38.902344 C 34.011719 39.75 33.984375 40.757812 34.394531 41.601562 C 34.777344 42.382812 35.492188 42.917969 36.359375 43.074219 C 37.605469 43.292969 38.738281 42.769531 39.644531 41.550781 C 40.417969 42.585938 41.351562 43.121094 42.378906 43.121094 C 42.5625 43.121094 42.742188 43.105469 42.929688 43.074219 C 43.796875 42.917969 44.515625 42.382812 44.894531 41.601562 C 45.304688 40.757812 45.277344 39.75 44.828125 38.902344 C 44.566406 38.410156 44.21875 38.371094 44 38.488281 Z M 44 38.488281 " fill-opacity="1" fill-rule="nonzero"/></g><path fill="#c5c6c7" d="M 67.285156 50.671875 C 66.832031 50.164062 65.023438 48.785156 63.863281 51.035156 C 62.699219 53.285156 65.871094 55.53125 67.285156 55.53125 C 68.699219 55.53125 71.871094 53.285156 70.707031 51.035156 C 69.542969 48.785156 67.738281 50.164062 67.285156 50.671875 Z M 68.394531 46.882812 C 68.394531 46.199219 68 45.640625 67.515625 45.640625 C 67.03125 45.640625 66.640625 46.199219 66.640625 46.882812 C 66.640625 47.570312 67.03125 48.128906 67.515625 48.128906 C 68 48.128906 68.394531 47.570312 68.394531 46.882812 Z M 71.113281 46.390625 C 70.621094 46.3125 70.128906 46.773438 70.015625 47.410156 C 69.898438 48.050781 70.203125 48.628906 70.695312 48.703125 C 71.1875 48.777344 71.679688 48.320312 71.792969 47.679688 C 71.910156 47.042969 71.605469 46.464844 71.113281 46.390625 Z M 64.023438 48.765625 C 64.519531 48.621094 64.742188 47.988281 64.515625 47.347656 C 64.292969 46.710938 63.707031 46.308594 63.210938 46.453125 C 62.714844 46.597656 62.492188 47.230469 62.71875 47.871094 C 62.941406 48.507812 63.527344 48.910156 64.023438 48.765625 Z M 64.023438 48.765625 " fill-opacity="1" fill-rule="nonzero"/></svg>