<svg xmlns="http://www.w3.org/2000/svg" viewBox="0 0 942 868" fill="black">
<path d="M 607 867 Z" />
<path d="M 580 867 Z" />
<path d="M 617 866 Z" />
<path d="M 570 866 Z" />
<path d="M 625 865 Z" />
<path d="M 562 865 Z" />
<path d="M 631 864 Z" />
<path d="M 556 864 Z" />
<path d="M 637 863 Z" />
<path d="M 550 863 Z" />
<path d="M 642 862 Z" />
<path d="M 545 862 Z" />
<path d="M 540 861 Z" />
<path d="M 651 860 Z" />
<path d="M 536 860 Z" />
<path d="M 655 859 Z" />
<path d="M 659 858 Z" />
<path d="M 528 858 Z" />
<path d="M 524 857 Z" />
<path d="M 517 855 Z" />
<path d="M 673 854 Z" />
<path d="M 514 854 Z" />
<path d="M 676 853 Z" />
<path d="M 511 853 Z" />
<path d="M 679 852 Z" />
<path d="M 682 851 Z" />
<path d="M 505 851 Z" />
<path d="M 502 850 Z" />
<path d="M 690 848 Z" />
<path d="M 693 847 Z" />
<path d="M 494 847 Z" />
<path d="M 695 846 Z" />
<path d="M 489 845 Z" />
<path d="M 700 844 Z" />
<path d="M 487 844 Z" />
<path d="M 482 842 Z" />
<path d="M 707 841 Z" />
<path d="M 709 840 Z" />
<path d="M 711 839 Z" />
<path d="M 723 833 Z" />
<path d="M 725 832 Z" />
<path d="M 727 831 Z" />
<path d="M 729 830 Z" />
<path d="M 458 830 Z" />
<path d="M 456 829 Z" />
<path d="M 734 827 Z" />
<path d="M 736 826 Z" />
<path d="M 451 826 Z" />
<path d="M 739 824 Z" />
<path d="M 741 823 Z" />
<path d="M 446 823 Z" />
<path d="M 444 822 Z" />
<path d="M 744 821 Z" />
<path d="M 441 820 Z" />
<path d="M 747 819 Z" />
<path d="M 438 818 Z" />
<path d="M 435 816 Z" />
<path d="M 602 815 L 603 815 Z" />
<path d="M 585 815 Z" />
<path d="M 612 814 Z" />
<path d="M 575 814 Z" />
<path d="M 432 814 Z" />
<path d="M 756 813 Z" />
<path d="M 619 813 Z" />
<path d="M 625 812 Z" />
<path d="M 562 812 Z" />
<path d="M 865 811 Z" />
<path d="M 863 811 Z" />
<path d="M 759 811 Z" />
<path d="M 631 811 Z" />
<path d="M 556 811 Z" />
<path d="M 326 811 Z" />
<path d="M 324 811 Z" />
<path d="M 870 810 Z" />
<path d="M 635 810 Z" />
<path d="M 552 810 Z" />
<path d="M 319 810 Z" />
<path d="M 872 809 Z" />
<path d="M 640 809 Z" />
<path d="M 547 809 Z" />
<path d="M 425 809 Z" />
<path d="M 317 809 Z" />
<path d="M 874 808 Z" />
<path d="M 763 808 Z" />
<path d="M 644 808 Z" />
<path d="M 543 808 Z" />
<path d="M 315 808 Z" />
<path d="M 852 807 Z" />
<path d="M 337 807 Z" />
<path d="M 651 806 Z" />
<path d="M 536 806 Z" />
<path d="M 421 806 Z" />
<path d="M 849 805 Z" />
<path d="M 767 805 L 766 806 Z" />
<path d="M 340 805 Z" />
<path d="M 846 803 Z" />
<path d="M 526 803 Z" />
<path d="M 343 803 Z" />
<path d="M 664 802 Z" />
<path d="M 523 802 Z" />
<path d="M 416 802 L 417 803 Z" />
<path d="M 843 801 Z" />
<path d="M 772 801 L 771 802 Z" />
<path d="M 346 801 Z" />
<path d="M 669 800 Z" />
<path d="M 840 799 Z" />
<path d="M 672 799 Z" />
<path d="M 515 799 Z" />
<path d="M 412 799 Z" />
<path d="M 349 799 Z" />
<path d="M 777 797 L 776 798 Z" />
<path d="M 677 797 Z" />
<path d="M 510 797 Z" />
<path d="M 352 797 Z" />
<path d="M 882 795 Z" />
<path d="M 833 794 Z" />
<path d="M 684 794 Z" />
<path d="M 503 794 Z" />
<path d="M 686 793 Z" />
<path d="M 830 792 Z" />
<path d="M 404 792 L 405 793 Z" />
<path d="M 359 792 Z" />
<path d="M 827 790 Z" />
<path d="M 785 790 L 783 792 Z" />
<path d="M 362 790 Z" />
<path d="M 882 789 Z" />
<path d="M 307 789 Z" />
<path d="M 824 788 Z" />
<path d="M 365 788 Z" />
<path d="M 821 786 Z" />
<path d="M 368 786 Z" />
<path d="M 702 785 Z" />
<path d="M 818 784 Z" />
<path d="M 704 784 Z" />
<path d="M 483 784 Z" />
<path d="M 371 784 Z" />
<path d="M 706 783 Z" />
<path d="M 481 783 Z" />
<path d="M 374 782 Z" />
<path d="M 709 781 Z" />
<path d="M 711 780 Z" />
<path d="M 476 780 Z" />
<path d="M 811 779 Z" />
<path d="M 808 777 Z" />
<path d="M 716 777 Z" />
<path d="M 471 777 Z" />
<path d="M 873 776 Z" />
<path d="M 800 776 L 797 779 Z" />
<path d="M 805 775 Z" />
<path d="M 719 775 Z" />
<path d="M 468 775 Z" />
<path d="M 386 775 L 395 784 Z" />
<path d="M 384 775 Z" />
<path d="M 722 773 Z" />
<path d="M 465 773 Z" />
<path d="M 866 771 Z" />
<path d="M 725 771 Z" />
<path d="M 462 771 Z" />
<path d="M 323 771 Z" />
<path d="M 863 769 Z" />
<path d="M 459 769 Z" />
<path d="M 326 769 Z" />
<path d="M 729 768 Z" />
<path d="M 860 767 Z" />
<path d="M 329 767 Z" />
<path d="M 732 766 Z" />
<path d="M 455 766 Z" />
<path d="M 857 765 Z" />
<path d="M 332 765 Z" />
<path d="M 854 763 Z" />
<path d="M 451 763 Z" />
<path d="M 335 763 Z" />
<path d="M 737 762 L 736 763 Z" />
<path d="M 851 761 Z" />
<path d="M 848 759 Z" />
<path d="M 446 759 Z" />
<path d="M 742 758 L 741 759 Z" />
<path d="M 844 756 Z" />
<path d="M 345 756 Z" />
<path d="M 841 754 Z" />
<path d="M 348 754 Z" />
<path d="M 439 753 L 440 754 Z" />
<path d="M 838 752 Z" />
<path d="M 749 752 L 747 754 Z" />
<path d="M 351 752 Z" />
<path d="M 835 750 Z" />
<path d="M 354 750 Z" />
<path d="M 832 748 Z" />
<path d="M 357 748 Z" />
<path d="M 829 746 Z" />
<path d="M 827 744 Z" />
<path d="M 359 743 Z" />
<path d="M 760 742 Z" />
<path d="M 907 741 Z" />
<path d="M 898 741 Z" />
<path d="M 291 741 Z" />
<path d="M 910 740 Z" />
<path d="M 357 740 Z" />
<path d="M 912 739 Z" />
<path d="M 424 739 L 429 744 Z" />
<path d="M 889 738 Z" />
<path d="M 300 738 Z" />
<path d="M 832 737 Z" />
<path d="M 303 737 Z" />
<path d="M 354 736 Z" />
<path d="M 917 735 L 915 737 Z" />
<path d="M 881 735 Z" />
<path d="M 308 735 Z" />
<path d="M 878 734 Z" />
<path d="M 834 734 Z" />
<path d="M 311 734 Z" />
<path d="M 271 734 L 274 737 Z" />
<path d="M 352 733 Z" />
<path d="M 919 732 Z" />
<path d="M 873 732 Z" />
<path d="M 870 731 Z" />
<path d="M 836 731 Z" />
<path d="M 319 731 Z" />
<path d="M 920 730 Z" />
<path d="M 350 730 Z" />
<path d="M 269 730 Z" />
<path d="M 865 729 Z" />
<path d="M 772 729 L 771 730 Z" />
<path d="M 862 728 Z" />
<path d="M 838 728 Z" />
<path d="M 414 728 L 415 729 Z" />
<path d="M 327 728 Z" />
<path d="M 921 727 Z" />
<path d="M 268 727 Z" />
<path d="M 854 725 Z" />
<path d="M 840 725 Z" />
<path d="M 347 725 Z" />
<path d="M 335 725 Z" />
<path d="M 851 724 Z" />
<path d="M 338 724 Z" />
<path d="M 846 722 Z" />
<path d="M 778 722 L 777 723 Z" />
<path d="M 409 722 Z" />
<path d="M 345 722 Z" />
<path d="M 343 722 Z" />
<path d="M 843 721 Z" />
<path d="M 781 718 Z" />
<path d="M 405 717 L 406 718 Z" />
<path d="M 785 713 L 784 714 Z" />
<path d="M 402 713 Z" />
<path d="M 787 710 Z" />
<path d="M 400 710 Z" />
<path d="M 913 707 Z" />
<path d="M 789 707 Z" />
<path d="M 276 707 Z" />
<path d="M 911 706 Z" />
<path d="M 397 706 Z" />
<path d="M 909 705 Z" />
<path d="M 280 705 Z" />
<path d="M 792 703 Z" />
<path d="M 395 703 Z" />
<path d="M 901 702 Z" />
<path d="M 288 702 Z" />
<path d="M 898 701 Z" />
<path d="M 291 701 Z" />
<path d="M 393 700 Z" />
<path d="M 890 698 Z" />
<path d="M 795 698 Z" />
<path d="M 299 698 Z" />
<path d="M 887 697 Z" />
<path d="M 302 697 Z" />
<path d="M 797 695 Z" />
<path d="M 390 695 Z" />
<path d="M 879 694 Z" />
<path d="M 310 694 Z" />
<path d="M 876 693 Z" />
<path d="M 388 692 Z" />
<path d="M 318 691 Z" />
<path d="M 868 690 Z" />
<path d="M 800 690 Z" />
<path d="M 387 690 Z" />
<path d="M 321 690 Z" />
<path d="M 865 689 Z" />
<path d="M 801 688 Z" />
<path d="M 861 685 Z" />
<path d="M 384 685 Z" />
<path d="M 862 683 Z" />
<path d="M 804 683 Z" />
<path d="M 383 683 Z" />
<path d="M 325 683 Z" />
<path d="M 805 681 Z" />
<path d="M 806 679 Z" />
<path d="M 864 678 Z" />
<path d="M 807 677 Z" />
<path d="M 322 676 Z" />
<path d="M 808 675 Z" />
<path d="M 866 673 Z" />
<path d="M 809 673 Z" />
<path d="M 810 671 Z" />
<path d="M 320 671 Z" />
<path d="M 811 669 Z" />
<path d="M 868 668 Z" />
<path d="M 319 668 Z" />
<path d="M 375 667 Z" />
<path d="M 869 665 Z" />
<path d="M 870 662 Z" />
<path d="M 814 662 Z" />
<path d="M 926 660 Z" />
<path d="M 905 660 L 908 660 Z" />
<path d="M 815 660 Z" />
<path d="M 372 660 Z" />
<path d="M 316 660 Z" />
<path d="M 282 660 L 284 660 Z" />
<path d="M 263 660 Z" />
<path d="M 930 659 Z" />
<path d="M 932 658 Z" />
<path d="M 371 658 Z" />
<path d="M 257 658 Z" />
<path d="M 817 655 Z" />
<path d="M 370 655 Z" />
<path d="M 938 653 Z" />
<path d="M 818 652 Z" />
<path d="M 940 650 Z" />
<path d="M 368 650 Z" />
<path d="M 249 650 Z" />
<path d="M 820 647 Z" />
<path d="M 821 644 Z" />
<path d="M 822 641 Z" />
<path d="M 823 638 Z" />
<path d="M 941 636 Z" />
<path d="M 363 635 Z" />
<path d="M 249 633 Z" />
<path d="M 825 631 Z" />
<path d="M 938 630 Z" />
<path d="M 251 630 L 250 631 Z" />
<path d="M 361 628 Z" />
<path d="M 934 626 L 935 627 Z" />
<path d="M 255 626 L 254 627 Z" />
<path d="M 932 625 Z" />
<path d="M 257 625 Z" />
<path d="M 930 624 Z" />
<path d="M 827 624 Z" />
<path d="M 259 624 Z" />
<path d="M 925 623 L 926 623 Z" />
<path d="M 263 623 Z" />
<path d="M 889 622 L 892 622 Z" />
<path d="M 569 622 Z" />
<path d="M 561 622 L 562 622 Z" />
<path d="M 297 622 L 298 622 Z" />
<path d="M 128 622 L 129 622 Z" />
<path d="M 122 622 Z" />
<path d="M 579 621 Z" />
<path d="M 553 621 Z" />
<path d="M 138 621 Z" />
<path d="M 112 621 Z" />
<path d="M 583 620 Z" />
<path d="M 359 620 Z" />
<path d="M 142 620 Z" />
<path d="M 108 620 Z" />
<path d="M 588 619 Z" />
<path d="M 146 619 Z" />
<path d="M 591 618 Z" />
<path d="M 149 618 Z" />
<path d="M 100 618 Z" />
<path d="M 539 617 Z" />
<path d="M 305 617 Z" />
<path d="M 152 617 Z" />
<path d="M 882 616 Z" />
<path d="M 596 616 Z" />
<path d="M 154 616 Z" />
<path d="M 95 616 Z" />
<path d="M 829 615 Z" />
<path d="M 603 612 Z" />
<path d="M 162 612 Z" />
<path d="M 88 612 Z" />
<path d="M 527 611 Z" />
<path d="M 357 611 Z" />
<path d="M 883 610 Z" />
<path d="M 830 610 Z" />
<path d="M 608 609 Z" />
<path d="M 524 609 Z" />
<path d="M 83 609 Z" />
<path d="M 168 608 Z" />
<path d="M 519 605 L 520 606 Z" />
<path d="M 356 605 Z" />
<path d="M 303 605 Z" />
<path d="M 614 604 L 613 605 Z" />
<path d="M 77 604 L 78 605 Z" />
<path d="M 884 603 Z" />
<path d="M 175 602 L 173 604 Z" />
<path d="M 832 598 Z" />
<path d="M 179 598 L 177 600 Z" />
<path d="M 511 597 L 512 598 Z" />
<path d="M 302 597 Z" />
<path d="M 885 595 Z" />
<path d="M 623 595 L 622 596 Z" />
<path d="M 68 595 Z" />
<path d="M 626 591 Z" />
<path d="M 65 591 Z" />
<path d="M 833 590 Z" />
<path d="M 504 589 L 505 590 Z" />
<path d="M 188 588 L 186 590 Z" />
<path d="M 63 588 Z" />
<path d="M 629 586 Z" />
<path d="M 301 586 Z" />
<path d="M 62 586 Z" />
<path d="M 886 583 L 886 584 Z" />
<path d="M 497 581 L 498 582 Z" />
<path d="M 353 581 Z" />
<path d="M 834 579 Z" />
<path d="M 633 578 Z" />
<path d="M 198 577 L 195 580 Z" />
<path d="M 57 576 Z" />
<path d="M 635 573 Z" />
<path d="M 490 573 L 491 574 Z" />
<path d="M 56 573 Z" />
<path d="M 55 570 Z" />
<path d="M 561 568 Z" />
<path d="M 130 568 Z" />
<path d="M 120 568 Z" />
<path d="M 574 567 Z" />
<path d="M 207 567 L 205 569 Z" />
<path d="M 117 567 Z" />
<path d="M 556 566 Z" />
<path d="M 115 566 Z" />
<path d="M 54 566 Z" />
<path d="M 483 565 L 484 566 Z" />
<path d="M 136 565 L 135 566 Z" />
<path d="M 140 562 Z" />
<path d="M 582 561 L 579 564 Z" />
<path d="M 550 561 L 551 562 Z" />
<path d="M 53 561 Z" />
<path d="M 638 560 Z" />
<path d="M 108 560 L 110 562 Z" />
<path d="M 107 558 Z" />
<path d="M 476 557 L 477 558 Z" />
<path d="M 216 557 L 214 559 Z" />
<path d="M 106 556 Z" />
<path d="M 105 553 Z" />
<path d="M 586 552 Z" />
<path d="M 539 549 L 541 551 Z" />
<path d="M 468 548 L 470 550 Z" />
<path d="M 226 546 L 223 549 Z" />
<path d="M 155 546 L 151 550 Z" />
<path d="M 461 540 L 463 542 Z" />
<path d="M 527 536 L 530 539 Z" />
<path d="M 235 536 L 233 538 Z" />
<path d="M 454 532 L 455 533 Z" />
<path d="M 170 530 L 166 534 Z" />
<path d="M 244 526 L 242 528 Z" />
<path d="M 516 524 L 519 527 Z" />
<path d="M 447 524 L 448 525 Z" />
<path d="M 440 516 L 441 517 Z" />
<path d="M 253 516 L 251 518 Z" />
<path d="M 185 514 L 181 518 Z" />
<path d="M 505 512 L 508 515 Z" />
<path d="M 433 508 L 434 509 Z" />
<path d="M 263 505 L 261 507 Z" />
<path d="M 494 500 L 496 502 Z" />
<path d="M 426 500 L 427 501 Z" />
<path d="M 199 499 L 195 503 Z" />
<path d="M 272 495 L 270 497 Z" />
<path d="M 419 492 L 420 493 Z" />
<path d="M 483 488 L 485 490 Z" />
<path d="M 281 485 L 279 487 Z" />
<path d="M 412 484 L 413 485 Z" />
<path d="M 214 483 L 210 487 Z" />
<path d="M 472 476 L 474 478 Z" />
<path d="M 404 475 L 406 477 Z" />
<path d="M 291 474 L 289 476 Z" />
<path d="M 647 473 L 644 476 Z" />
<path d="M 398 468 L 399 469 Z" />
<path d="M 229 467 L 225 471 Z" />
<path d="M 300 464 L 298 466 L 299 465 L 300 466 L 300 564 Z" />
<path d="M 656 463 L 654 465 Z" />
<path d="M 460 463 L 463 466 Z" />
<path d="M 530 460 L 532 462 Z" />
<path d="M 666 452 L 663 455 Z" />
<path d="M 449 451 L 452 454 Z" />
<path d="M 244 451 L 240 455 Z" />
<path d="M 519 448 L 521 450 Z" />
<path d="M 675 442 L 673 444 Z" />
<path d="M 438 439 L 440 441 Z" />
<path d="M 508 436 L 510 438 Z" />
<path d="M 259 435 L 255 439 Z" />
<path d="M 685 431 L 683 433 Z" />
<path d="M 427 427 L 429 429 Z" />
<path d="M 496 423 L 499 426 Z" />
<path d="M 694 421 L 692 423 Z" />
<path d="M 273 420 L 269 424 Z" />
<path d="M 416 415 L 418 417 Z" />
<path d="M 485 411 L 488 414 Z" />
<path d="M 704 410 L 702 412 Z" />
<path d="M 640 408 L 639 409 Z" />
<path d="M 288 404 L 284 408 Z" />
<path d="M 404 402 L 407 405 Z" />
<path d="M 646 401 L 645 402 Z" />
<path d="M 541 400 L 541 470 Z" />
<path d="M 714 399 L 711 402 Z" />
<path d="M 474 399 L 476 401 Z" />
<path d="M 539 397 L 540 398 Z" />
<path d="M 653 393 L 651 395 Z" />
<path d="M 299 392 Z" />
<path d="M 723 389 L 721 391 Z" />
<path d="M 532 389 L 533 390 Z" />
<path d="M 463 387 L 465 389 Z" />
<path d="M 659 386 L 658 387 Z" />
<path d="M 525 381 L 526 382 Z" />
<path d="M 665 379 L 664 380 Z" />
<path d="M 733 378 L 730 381 Z" />
<path d="M 452 375 L 454 377 Z" />
<path d="M 518 373 L 519 374 Z" />
<path d="M 672 371 L 671 372 Z" />
<path d="M 742 368 L 740 370 Z" />
<path d="M 511 365 L 512 366 Z" />
<path d="M 678 364 L 677 365 Z" />
<path d="M 440 362 L 443 365 Z" />
<path d="M 752 357 L 749 360 Z" />
<path d="M 504 357 L 505 358 Z" />
<path d="M 685 356 L 683 358 Z" />
<path d="M 429 350 L 432 353 Z" />
<path d="M 691 349 L 690 350 Z" />
<path d="M 496 348 L 498 350 Z" />
<path d="M 761 347 L 759 349 Z" />
<path d="M 697 342 L 696 343 Z" />
<path d="M 489 340 L 491 342 Z" />
<path d="M 418 338 L 421 341 Z" />
<path d="M 771 336 L 769 338 Z" />
<path d="M 704 334 L 702 336 Z" />
<path d="M 482 332 L 483 333 Z" />
<path d="M 710 327 L 709 328 Z" />
<path d="M 780 326 L 778 328 Z" />
<path d="M 407 326 L 409 328 Z" />
<path d="M 475 324 L 476 325 Z" />
<path d="M 716 320 L 715 321 Z" />
<path d="M 300 317 L 300 390 Z" />
<path d="M 468 316 L 469 317 Z" />
<path d="M 834 315 Z" />
<path d="M 790 315 L 788 317 Z" />
<path d="M 396 314 L 398 316 Z" />
<path d="M 353 314 Z" />
<path d="M 723 312 L 722 313 Z" />
<path d="M 354 311 Z" />
<path d="M 832 309 Z" />
<path d="M 355 309 Z" />
<path d="M 461 308 L 462 309 Z" />
<path d="M 886 307 Z" />
<path d="M 301 306 Z" />
<path d="M 729 305 L 728 306 Z" />
<path d="M 358 305 L 356 307 Z" />
<path d="M 800 304 L 797 307 Z" />
<path d="M 52 304 L 52 550 Z" />
<path d="M 827 303 L 831 307 Z" />
<path d="M 804 301 Z" />
<path d="M 383 301 L 384 302 Z" />
<path d="M 363 301 Z" />
<path d="M 822 300 Z" />
<path d="M 806 300 Z" />
<path d="M 454 300 L 455 301 Z" />
<path d="M 365 300 Z" />
<path d="M 809 299 Z" />
<path d="M 378 299 Z" />
<path d="M 736 297 L 734 299 Z" />
<path d="M 447 292 L 448 293 Z" />
<path d="M 305 291 Z" />
<path d="M 742 290 L 741 291 Z" />
<path d="M 881 289 Z" />
<path d="M 586 288 Z" />
<path d="M 880 287 Z" />
<path d="M 105 286 Z" />
<path d="M 440 284 L 441 285 Z" />
<path d="M 748 283 L 747 284 Z" />
<path d="M 638 283 Z" />
<path d="M 877 281 Z" />
<path d="M 53 281 Z" />
<path d="M 311 279 Z" />
<path d="M 585 277 Z" />
<path d="M 313 276 Z" />
<path d="M 873 275 Z" />
<path d="M 755 275 L 753 277 Z" />
<path d="M 432 275 L 434 277 Z" />
<path d="M 106 275 Z" />
<path d="M 316 272 Z" />
<path d="M 869 270 L 870 271 Z" />
<path d="M 54 270 Z" />
<path d="M 584 269 Z" />
<path d="M 761 268 L 760 269 Z" />
<path d="M 425 267 L 427 269 Z" />
<path d="M 107 267 Z" />
<path d="M 862 263 L 863 264 Z" />
<path d="M 583 263 Z" />
<path d="M 420 262 L 422 264 Z" />
<path d="M 108 262 Z" />
<path d="M 55 262 Z" />
<path d="M 768 261 L 766 263 Z" />
<path d="M 327 261 L 326 262 Z" />
<path d="M 771 259 Z" />
<path d="M 416 259 Z" />
<path d="M 856 258 Z" />
<path d="M 331 258 Z" />
<path d="M 854 257 Z" />
<path d="M 582 257 Z" />
<path d="M 775 256 Z" />
<path d="M 109 256 Z" />
<path d="M 56 256 Z" />
<path d="M 851 255 Z" />
<path d="M 777 255 Z" />
<path d="M 410 255 Z" />
<path d="M 336 255 Z" />
<path d="M 849 254 Z" />
<path d="M 846 252 Z" />
<path d="M 581 252 Z" />
<path d="M 634 251 Z" />
<path d="M 343 251 Z" />
<path d="M 110 251 Z" />
<path d="M 841 250 Z" />
<path d="M 787 250 Z" />
<path d="M 400 250 Z" />
<path d="M 57 250 Z" />
<path d="M 790 249 Z" />
<path d="M 397 249 Z" />
<path d="M 348 249 Z" />
<path d="M 836 248 Z" />
<path d="M 580 248 Z" />
<path d="M 394 248 Z" />
<path d="M 831 247 Z" />
<path d="M 111 247 Z" />
<path d="M 801 246 Z" />
<path d="M 386 246 Z" />
<path d="M 360 246 Z" />
<path d="M 816 245 L 817 245 Z" />
<path d="M 810 245 L 811 245 Z" />
<path d="M 643 245 L 645 245 Z" />
<path d="M 377 245 Z" />
<path d="M 370 245 Z" />
<path d="M 49 245 L 52 245 Z" />
<path d="M 678 244 Z" />
<path d="M 15 244 L 16 244 Z" />
<path d="M 682 243 Z" />
<path d="M 579 243 Z" />
<path d="M 11 243 Z" />
<path d="M 684 242 Z" />
<path d="M 9 242 Z" />
<path d="M 686 241 Z" />
<path d="M 6 240 L 7 241 Z" />
<path d="M 113 239 Z" />
<path d="M 3 237 Z" />
<path d="M 691 236 L 690 237 Z" />
<path d="M 577 236 Z" />
<path d="M 692 234 Z" />
<path d="M 115 232 Z" />
<path d="M 0 231 Z" />
<path d="M 575 229 Z" />
<path d="M 574 226 Z" />
<path d="M 573 223 Z" />
<path d="M 572 220 Z" />
<path d="M 692 217 Z" />
<path d="M 120 217 Z" />
<path d="M 1 217 Z" />
<path d="M 570 215 Z" />
<path d="M 3 214 Z" />
<path d="M 6 211 Z" />
<path d="M 684 209 Z" />
<path d="M 123 209 Z" />
<path d="M 9 209 Z" />
<path d="M 11 208 Z" />
<path d="M 678 207 Z" />
<path d="M 657 207 L 659 207 Z" />
<path d="M 567 207 Z" />
<path d="M 68 207 Z" />
<path d="M 33 207 L 36 207 Z" />
<path d="M 15 207 Z" />
<path d="M 566 205 Z" />
<path d="M 621 202 Z" />
<path d="M 126 202 Z" />
<path d="M 127 200 Z" />
<path d="M 620 199 Z" />
<path d="M 71 199 Z" />
<path d="M 563 198 Z" />
<path d="M 562 196 Z" />
<path d="M 72 196 Z" />
<path d="M 561 194 Z" />
<path d="M 560 192 Z" />
<path d="M 617 191 Z" />
<path d="M 74 191 Z" />
<path d="M 559 190 Z" />
<path d="M 616 189 Z" />
<path d="M 558 188 Z" />
<path d="M 557 186 Z" />
<path d="M 76 186 Z" />
<path d="M 614 184 Z" />
<path d="M 556 184 Z" />
<path d="M 135 184 Z" />
<path d="M 77 184 Z" />
<path d="M 136 182 Z" />
<path d="M 553 179 Z" />
<path d="M 76 178 Z" />
<path d="M 620 177 Z" />
<path d="M 552 177 Z" />
<path d="M 73 177 Z" />
<path d="M 623 176 Z" />
<path d="M 140 175 Z" />
<path d="M 65 174 Z" />
<path d="M 631 173 Z" />
<path d="M 62 173 Z" />
<path d="M 549 172 Z" />
<path d="M 639 170 Z" />
<path d="M 143 170 Z" />
<path d="M 54 170 Z" />
<path d="M 642 169 Z" />
<path d="M 547 169 Z" />
<path d="M 51 169 Z" />
<path d="M 145 167 Z" />
<path d="M 650 166 Z" />
<path d="M 43 166 Z" />
<path d="M 653 165 Z" />
<path d="M 40 165 Z" />
<path d="M 147 164 Z" />
<path d="M 661 162 Z" />
<path d="M 32 162 Z" />
<path d="M 149 161 Z" />
<path d="M 30 161 Z" />
<path d="M 665 160 Z" />
<path d="M 541 160 Z" />
<path d="M 28 160 Z" />
<path d="M 151 158 Z" />
<path d="M 539 157 Z" />
<path d="M 154 154 Z" />
<path d="M 536 153 Z" />
<path d="M 157 150 Z" />
<path d="M 533 149 Z" />
<path d="M 595 146 Z" />
<path d="M 598 145 Z" />
<path d="M 161 145 Z" />
<path d="M 97 145 Z" />
<path d="M 95 145 Z" />
<path d="M 529 144 Z" />
<path d="M 603 143 Z" />
<path d="M 90 143 Z" />
<path d="M 606 142 Z" />
<path d="M 592 142 Z" />
<path d="M 99 142 Z" />
<path d="M 87 142 Z" />
<path d="M 673 140 Z" />
<path d="M 20 140 Z" />
<path d="M 614 139 Z" />
<path d="M 590 139 Z" />
<path d="M 79 139 Z" />
<path d="M 167 138 L 166 139 Z" />
<path d="M 76 138 Z" />
<path d="M 672 137 Z" />
<path d="M 523 137 L 524 138 Z" />
<path d="M 102 137 Z" />
<path d="M 21 137 Z" />
<path d="M 622 136 Z" />
<path d="M 71 136 Z" />
<path d="M 68 135 Z" />
<path d="M 22 135 Z" />
<path d="M 104 134 Z" />
<path d="M 630 133 Z" />
<path d="M 63 133 Z" />
<path d="M 633 132 Z" />
<path d="M 60 132 Z" />
<path d="M 106 131 Z" />
<path d="M 667 130 L 670 133 Z" />
<path d="M 638 130 Z" />
<path d="M 584 130 Z" />
<path d="M 26 130 L 24 132 Z" />
<path d="M 641 129 Z" />
<path d="M 52 129 Z" />
<path d="M 29 128 Z" />
<path d="M 582 127 Z" />
<path d="M 109 127 Z" />
<path d="M 31 127 Z" />
<path d="M 650 126 Z" />
<path d="M 43 126 Z" />
<path d="M 34 126 Z" />
<path d="M 111 124 Z" />
<path d="M 579 123 Z" />
<path d="M 182 122 L 175 129 Z" />
<path d="M 112 121 Z" />
<path d="M 584 119 Z" />
<path d="M 109 119 Z" />
<path d="M 587 117 Z" />
<path d="M 106 117 Z" />
<path d="M 590 115 Z" />
<path d="M 103 115 Z" />
<path d="M 500 114 L 501 115 Z" />
<path d="M 593 113 Z" />
<path d="M 100 113 Z" />
<path d="M 193 112 L 191 114 Z" />
<path d="M 596 111 Z" />
<path d="M 599 109 Z" />
<path d="M 493 108 L 494 109 Z" />
<path d="M 93 108 Z" />
<path d="M 199 107 L 198 108 Z" />
<path d="M 90 106 Z" />
<path d="M 489 105 Z" />
<path d="M 606 104 Z" />
<path d="M 203 104 Z" />
<path d="M 87 104 Z" />
<path d="M 609 102 Z" />
<path d="M 84 102 Z" />
<path d="M 484 101 Z" />
<path d="M 207 101 Z" />
<path d="M 612 100 Z" />
<path d="M 81 100 Z" />
<path d="M 481 99 Z" />
<path d="M 615 98 Z" />
<path d="M 211 98 Z" />
<path d="M 78 98 Z" />
<path d="M 618 96 Z" />
<path d="M 477 96 Z" />
<path d="M 214 96 Z" />
<path d="M 75 96 Z" />
<path d="M 621 94 Z" />
<path d="M 474 94 Z" />
<path d="M 217 94 Z" />
<path d="M 71 93 Z" />
<path d="M 557 92 Z" />
<path d="M 471 92 Z" />
<path d="M 220 92 Z" />
<path d="M 136 92 Z" />
<path d="M 68 91 Z" />
<path d="M 560 90 Z" />
<path d="M 223 90 Z" />
<path d="M 133 90 Z" />
<path d="M 466 89 Z" />
<path d="M 130 88 Z" />
<path d="M 228 87 Z" />
<path d="M 547 86 L 553 92 Z" />
<path d="M 461 86 Z" />
<path d="M 567 85 Z" />
<path d="M 233 84 Z" />
<path d="M 146 84 L 138 92 Z" />
<path d="M 570 83 Z" />
<path d="M 456 83 Z" />
<path d="M 235 83 Z" />
<path d="M 123 83 Z" />
<path d="M 454 82 Z" />
<path d="M 573 81 Z" />
<path d="M 452 81 Z" />
<path d="M 120 81 Z" />
<path d="M 576 79 Z" />
<path d="M 117 79 Z" />
<path d="M 634 78 Z" />
<path d="M 59 78 Z" />
<path d="M 579 77 Z" />
<path d="M 114 77 Z" />
<path d="M 582 75 Z" />
<path d="M 535 75 L 536 76 Z" />
<path d="M 440 75 Z" />
<path d="M 111 75 Z" />
<path d="M 438 74 Z" />
<path d="M 157 74 L 156 75 Z" />
<path d="M 436 73 Z" />
<path d="M 255 73 Z" />
<path d="M 108 73 Z" />
<path d="M 257 72 Z" />
<path d="M 59 72 Z" />
<path d="M 634 71 Z" />
<path d="M 431 71 Z" />
<path d="M 589 70 Z" />
<path d="M 429 70 Z" />
<path d="M 262 70 Z" />
<path d="M 104 70 Z" />
<path d="M 528 69 Z" />
<path d="M 592 68 Z" />
<path d="M 424 68 Z" />
<path d="M 267 68 Z" />
<path d="M 164 68 L 163 69 Z" />
<path d="M 101 68 Z" />
<path d="M 421 67 Z" />
<path d="M 595 66 Z" />
<path d="M 98 66 Z" />
<path d="M 523 65 Z" />
<path d="M 275 65 Z" />
<path d="M 168 65 Z" />
<path d="M 598 64 Z" />
<path d="M 278 64 Z" />
<path d="M 95 64 Z" />
<path d="M 281 63 Z" />
<path d="M 601 62 Z" />
<path d="M 92 62 Z" />
<path d="M 518 61 Z" />
<path d="M 403 61 Z" />
<path d="M 288 61 Z" />
<path d="M 173 61 Z" />
<path d="M 89 60 Z" />
<path d="M 626 59 Z" />
<path d="M 295 59 Z" />
<path d="M 67 59 Z" />
<path d="M 624 58 Z" />
<path d="M 299 58 Z" />
<path d="M 177 58 Z" />
<path d="M 69 58 Z" />
<path d="M 622 57 Z" />
<path d="M 387 57 Z" />
<path d="M 71 57 Z" />
<path d="M 617 56 Z" />
<path d="M 615 56 Z" />
<path d="M 511 56 Z" />
<path d="M 308 56 Z" />
<path d="M 180 56 Z" />
<path d="M 78 56 Z" />
<path d="M 76 56 Z" />
<path d="M 377 55 Z" />
<path d="M 314 55 Z" />
<path d="M 371 54 Z" />
<path d="M 319 54 Z" />
<path d="M 507 53 Z" />
<path d="M 364 53 Z" />
<path d="M 327 53 Z" />
<path d="M 184 53 Z" />
<path d="M 354 52 Z" />
<path d="M 336 52 L 337 52 Z" />
<path d="M 504 51 Z" />
<path d="M 187 51 Z" />
<path d="M 190 49 Z" />
<path d="M 193 47 Z" />
<path d="M 493 44 Z" />
<path d="M 198 44 Z" />
<path d="M 488 41 Z" />
<path d="M 203 41 Z" />
<path d="M 483 38 Z" />
<path d="M 208 38 Z" />
<path d="M 481 37 Z" />
<path d="M 210 37 Z" />
<path d="M 479 36 Z" />
<path d="M 212 36 Z" />
<path d="M 461 27 Z" />
<path d="M 230 27 Z" />
<path d="M 459 26 Z" />
<path d="M 232 26 Z" />
<path d="M 457 25 Z" />
<path d="M 234 25 Z" />
<path d="M 452 23 Z" />
<path d="M 239 23 Z" />
<path d="M 445 20 Z" />
<path d="M 246 20 Z" />
<path d="M 442 19 Z" />
<path d="M 249 19 Z" />
<path d="M 254 17 Z" />
<path d="M 434 16 Z" />
<path d="M 257 16 Z" />
<path d="M 431 15 Z" />
<path d="M 260 15 Z" />
<path d="M 428 14 Z" />
<path d="M 263 14 Z" />
<path d="M 425 13 Z" />
<path d="M 266 13 Z" />
<path d="M 269 12 Z" />
<path d="M 415 10 Z" />
<path d="M 276 10 Z" />
<path d="M 411 9 Z" />
<path d="M 280 9 Z" />
<path d="M 407 8 Z" />
<path d="M 284 8 Z" />
<path d="M 403 7 Z" />
<path d="M 288 7 Z" />
<path d="M 394 5 Z" />
<path d="M 297 5 Z" />
<path d="M 389 4 Z" />
<path d="M 302 4 Z" />
<path d="M 383 3 Z" />
<path d="M 308 3 Z" />
<path d="M 377 2 Z" />
<path d="M 314 2 Z" />
<path d="M 369 1 Z" />
<path d="M 322 1 Z" />
<path d="M 359 0 Z" />
<path d="M 332 0 Z" />
</svg>