<svg xmlns="http://www.w3.org/2000/svg" xmlns:xlink="http://www.w3.org/1999/xlink" width="100" zoomAndPan="magnify" viewBox="0 0 75 74.999997" height="100" preserveAspectRatio="xMidYMid meet" version="1.0"><defs><filter x="0%" y="0%" width="100%" height="100%" id="62bba3baad"><feColorMatrix values="0 0 0 0 1 0 0 0 0 1 0 0 0 0 1 0 0 0 1 0" color-interpolation-filters="sRGB"/></filter><clipPath id="8aeaaae655"><path d="M 34 20.019531 L 73.796875 20.019531 L 73.796875 55 L 34 55 Z M 34 20.019531 " clip-rule="nonzero"/></clipPath><clipPath id="c51194148e"><path d="M 34 20.019531 L 73.796875 20.019531 L 73.796875 54 L 34 54 Z M 34 20.019531 " clip-rule="nonzero"/></clipPath><clipPath id="0638662309"><path d="M 34 21 L 73.796875 21 L 73.796875 55.269531 L 34 55.269531 Z M 34 21 " clip-rule="nonzero"/></clipPath><mask id="e9dc7860f0"><g filter="url(#62bba3baad)"><rect x="-7.5" width="90" fill="#000000" y="-7.5" height="89.999996" fill-opacity="0.3"/></g></mask><clipPath id="a26e86fc46"><path d="M 0.320312 0.359375 L 39.199219 0.359375 L 39.199219 34 L 0.320312 34 Z M 0.320312 0.359375 " clip-rule="nonzero"/></clipPath><clipPath id="c793296498"><rect x="0" width="40" y="0" height="35"/></clipPath><clipPath id="955ed82b02"><path d="M 33 20.019531 L 73.796875 20.019531 L 73.796875 55 L 33 55 Z M 33 20.019531 " clip-rule="nonzero"/></clipPath><clipPath id="56baf42843"><path d="M 4.496094 23.769531 L 28.496094 23.769531 L 28.496094 53.769531 L 4.496094 53.769531 Z M 4.496094 23.769531 " clip-rule="nonzero"/></clipPath><clipPath id="4499f9f5d8"><path d="M 4.496094 23.769531 L 28.496094 23.769531 L 28.496094 53.769531 L 4.496094 53.769531 Z M 4.496094 23.769531 " clip-rule="nonzero"/></clipPath></defs><g clip-path="url(#8aeaaae655)"><path fill="#ffffff" d="M 73.253906 52.246094 L 73.113281 54.972656 L 63.191406 54.972656 L 63.367188 52.246094 Z M 70.976562 40.304688 C 70.976562 40.304688 71.226562 35.855469 67.484375 31.246094 C 68.34375 26.984375 67.191406 21.277344 66.101562 20.4375 C 64.039062 20.558594 59.730469 22.066406 57.339844 25.863281 C 54.917969 25 51.5 24.773438 48.050781 25.632812 C 48.050781 25.632812 43.96875 21.347656 39.1875 20.4375 C 36.863281 22.132812 37.589844 30.382812 37.566406 31.421875 C 35.949219 34.304688 29.828125 43.121094 39.890625 49.300781 C 38.550781 52.738281 38.019531 54.925781 38.019531 54.925781 L 62.828125 54.972656 C 62.828125 54.972656 63.285156 50.136719 63.78125 47.746094 C 64.273438 45.355469 64.730469 41.339844 65.785156 40.871094 C 66.835938 40.402344 67.660156 41.515625 67.660156 41.515625 C 67.660156 41.515625 68.851562 38.597656 69.78125 41.199219 C 69.511719 40.214844 70.976562 40.304688 70.976562 40.304688 Z M 70.976562 40.304688 " fill-opacity="1" fill-rule="nonzero"/></g><g clip-path="url(#c51194148e)"><path fill="#66fcf1" d="M 64.421875 44.015625 C 65.195312 40.109375 66.78125 40.496094 67.660156 41.515625 C 67.800781 40.320312 69.066406 39.933594 69.804688 40.882812 C 72.65625 38.070312 73.113281 46.417969 73.113281 46.417969 L 73.113281 51.824219 C 73.113281 51.824219 72.476562 53.902344 68.101562 53.902344 C 64.28125 53.902344 63.191406 52.210938 63.191406 52.210938 C 63.191406 52.210938 63.648438 47.921875 64.421875 44.015625 Z M 48.175781 25.683594 C 47.332031 24.421875 41.894531 20.019531 39.257812 20.441406 C 36.265625 23.890625 37.707031 31.421875 37.707031 31.421875 C 37.707031 31.421875 35.238281 34.722656 34.945312 37.914062 C 35.039062 40.269531 41.4375 44.390625 48.753906 38.265625 C 55.707031 32.445312 50.109375 25.332031 50.109375 25.332031 C 50.109375 25.332031 49.160156 25.398438 48.175781 25.683594 Z M 65.503906 22.484375 L 63.191406 27.175781 C 63.191406 27.175781 65.257812 28.886719 65.800781 30.363281 C 66.347656 28.957031 66.492188 25.367188 65.503906 22.484375 Z M 65.503906 22.484375 " fill-opacity="1" fill-rule="nonzero"/></g><g clip-path="url(#0638662309)"><g mask="url(#e9dc7860f0)"><g transform="matrix(1, 0, 0, 1, 34, 21)"><g clip-path="url(#c793296498)"><g clip-path="url(#a26e86fc46)"><path fill="#c5c6c7" d="M 39.113281 33.972656 C 39.113281 33.972656 39.113281 33.972656 34.839844 33.972656 C 38.164062 33.671875 38.570312 24.703125 38.570312 24.703125 Z M 7.742188 6.175781 C 7.742188 6.175781 5.914062 2.375 5.609375 1.484375 C 4.832031 3.359375 4.707031 8.050781 5.308594 9.363281 C 6.496094 7.917969 7.742188 6.175781 7.742188 6.175781 Z M 28.847656 33.972656 C 29.238281 31.519531 29.777344 28.144531 30.207031 25.425781 C 30.207031 25.425781 30.203125 25.429688 30.203125 25.429688 L 30.644531 20.546875 C 30.617188 20.582031 30.582031 20.628906 30.539062 20.691406 C 30.203125 21.175781 29.441406 22.570312 28.832031 25.886719 C 26.316406 26.636719 23.007812 27.152344 18.652344 27.179688 C 1.765625 27.0625 0.613281 19.660156 0.613281 19.660156 C 0.613281 19.660156 0.308594 20.65625 0.957031 22.289062 C 0.769531 22.128906 0.625 22.003906 0.546875 21.925781 C 1.042969 25.664062 5.914062 28.550781 5.914062 28.550781 L 4.019531 33.972656 C 4.019531 33.972656 6.007812 33.972656 8.164062 33.972656 C 9.476562 29.683594 11.066406 29.796875 11.066406 29.796875 C 14.371094 30.519531 17.546875 30.714844 18.652344 30.714844 C 19.761719 30.714844 22.9375 30.519531 26.242188 29.796875 C 26.242188 29.796875 27.054688 29.738281 27.996094 31.273438 C 27.652344 33.460938 27.542969 33.96875 27.542969 33.96875 Z M 23.25 4.863281 L 25.195312 5.421875 C 25.195312 5.421875 25.921875 2.808594 29.101562 0.597656 C 26.886719 1.203125 24.492188 2.804688 23.25 4.863281 Z M 8.050781 0.597656 C 11.230469 2.808594 11.957031 5.421875 11.957031 5.421875 L 13.902344 4.863281 C 12.660156 2.804688 10.269531 1.203125 8.050781 0.597656 Z M 19.9375 21.210938 C 19.9375 21.210938 18.34375 21.578125 16.984375 21.167969 C 17.171875 22.734375 19.46875 22.875 19.9375 21.210938 Z M 19.9375 21.210938 " fill-opacity="1" fill-rule="nonzero"/></g></g></g></g></g><path fill="#ffffff" d="M 37.953125 24.996094 C 37.953125 24.996094 37.59375 29.898438 39.269531 32.242188 C 37.496094 33.53125 34.457031 37.71875 34.542969 41.128906 C 33.875 38.914062 34.832031 35.125 37.484375 31.738281 C 37.214844 29.730469 37.484375 26.972656 37.953125 24.996094 Z M 63.847656 50.339844 C 64.796875 43.292969 66.421875 41.136719 66.421875 41.136719 C 63.75 40.414062 63.601562 47.203125 63.847656 50.339844 Z M 36.445312 45.703125 C 36.445312 45.703125 39.714844 48.695312 41.71875 49.011719 C 40.910156 50.03125 39.269531 54.972656 39.269531 54.972656 L 37.8125 54.972656 L 39.714844 49.433594 C 39.714844 49.433594 36.523438 47.851562 36.445312 45.703125 Z M 36.445312 45.703125 " fill-opacity="1" fill-rule="nonzero"/><g clip-path="url(#955ed82b02)"><path fill="#0b0c10" d="M 73.640625 54.972656 C 73.191406 54.972656 72.601562 54.972656 72.601562 54.972656 C 72.59375 53.257812 72.894531 44.402344 71.996094 41.417969 C 71.523438 39.839844 70.039062 40.59375 69.835938 41.910156 C 69.703125 41.25 69.550781 40.539062 68.875 40.609375 C 68.042969 40.695312 67.703125 42.167969 67.703125 42.167969 C 67.703125 42.167969 67.03125 41.097656 66.421875 41.136719 C 65.453125 41.199219 64.816406 42.621094 64.355469 45.644531 C 64.09375 47.34375 63.421875 54.972656 63.421875 54.972656 L 62.558594 54.972656 C 62.558594 54.972656 63.035156 49.714844 63.1875 48.574219 L 63.191406 48.542969 L 63.3125 47.652344 C 63.589844 45.703125 63.902344 43.929688 64.199219 42.8125 C 64.976562 39.894531 66.738281 39.589844 67.53125 40.988281 C 67.941406 39.488281 69.710938 39.238281 69.894531 40.558594 C 69.953125 40.28125 70.230469 39.949219 70.617188 39.8125 C 70.460938 37.558594 69.476562 34.84375 67.101562 31.597656 C 67.621094 30.503906 68.175781 25.371094 65.996094 20.863281 C 64.890625 20.863281 61.199219 21.765625 57.632812 25.644531 C 58.238281 25.851562 58.808594 26.109375 59.285156 26.421875 C 59.136719 26.429688 55.882812 25.503906 52.625 25.503906 C 49.371094 25.503906 46.113281 26.429688 45.964844 26.421875 C 46.441406 26.109375 47.011719 25.851562 47.617188 25.644531 C 44.050781 21.765625 40.359375 20.863281 39.257812 20.863281 C 37.074219 25.371094 37.628906 30.503906 38.148438 31.597656 C 29.546875 43.367188 39.167969 48.136719 40.539062 49.203125 C 39.765625 50.789062 38.339844 54.972656 38.339844 54.972656 L 37.386719 54.972656 C 37.386719 54.972656 38.308594 52.054688 39.4375 49.453125 C 30.847656 44.402344 33.625 36.132812 37.144531 31.738281 C 36.089844 25.507812 38.269531 20.160156 39.117188 20.019531 C 44.710938 21.089844 47.570312 24.421875 48.316406 25.425781 C 49.324219 25.144531 50.972656 24.730469 52.625 24.730469 C 54.277344 24.730469 55.925781 25.140625 56.933594 25.425781 C 57.683594 24.421875 60.539062 21.089844 66.136719 20.019531 C 66.980469 20.160156 69.160156 25.507812 68.105469 31.738281 C 69.773438 33.824219 71.277344 36.78125 71.476562 39.855469 C 71.765625 39.980469 72.074219 40.234375 72.371094 40.660156 C 72.933594 41.460938 73.015625 42.492188 73.28125 44.570312 C 73.523438 46.488281 73.640625 53.839844 73.640625 54.972656 Z M 65.503906 22.484375 C 65.503906 22.484375 63.898438 24.753906 62.71875 27.171875 C 63.511719 27.691406 65.136719 29.378906 65.800781 30.363281 C 66.113281 29.800781 64.492188 27.414062 63.664062 26.953125 C 64.523438 26.035156 65.503906 22.484375 65.503906 22.484375 Z M 39.609375 22.484375 C 39.609375 22.484375 41.210938 24.753906 42.390625 27.171875 C 41.601562 27.691406 39.972656 29.378906 39.308594 30.363281 C 38.996094 29.800781 40.621094 27.414062 41.449219 26.953125 C 40.585938 26.035156 39.609375 22.484375 39.609375 22.484375 Z M 44.082031 33.851562 C 42.292969 34.277344 41.078125 36.0625 40.710938 37.546875 C 40.652344 37.769531 40.773438 37.949219 41.027344 38.011719 C 41.433594 38.113281 42.171875 37.90625 42.28125 37.472656 C 42.421875 36.902344 42.664062 36.386719 43 35.9375 C 43.25 35.597656 43.742188 35.011719 44.207031 34.894531 C 44.582031 34.800781 44.9375 35.414062 45.128906 35.742188 L 45.175781 35.816406 C 45.503906 36.371094 45.769531 37.015625 45.964844 37.726562 C 46.03125 37.976562 46.277344 38.074219 46.550781 38.074219 C 46.664062 38.074219 46.78125 38.058594 46.894531 38.027344 C 47.347656 37.902344 47.609375 37.605469 47.527344 37.308594 C 46.808594 34.683594 45.621094 33.492188 44.082031 33.851562 Z M 64.402344 37.308594 C 63.683594 34.683594 62.492188 33.492188 60.957031 33.851562 C 59.167969 34.277344 57.953125 36.0625 57.582031 37.546875 C 57.550781 37.683594 57.582031 37.808594 57.671875 37.898438 C 57.867188 38.082031 58.253906 38.058594 58.523438 37.980469 C 58.863281 37.882812 59.097656 37.691406 59.152344 37.472656 C 59.296875 36.902344 59.539062 36.386719 59.871094 35.9375 C 60.125 35.597656 60.617188 35.011719 61.082031 34.894531 C 61.453125 34.800781 61.8125 35.414062 62.003906 35.742188 L 62.046875 35.816406 C 62.378906 36.371094 62.644531 37.015625 62.839844 37.726562 C 62.882812 37.886719 63.007812 38 63.195312 38.050781 C 63.265625 38.066406 63.34375 38.078125 63.421875 38.078125 C 63.726562 38.078125 64.070312 37.953125 64.261719 37.761719 C 64.394531 37.625 64.445312 37.464844 64.402344 37.308594 Z M 55.152344 38.097656 C 54.960938 38.199219 54.871094 38.523438 55.058594 38.871094 C 55.164062 39.074219 55.050781 39.285156 54.972656 39.390625 C 54.765625 39.671875 54.398438 39.839844 54.117188 39.789062 C 53.628906 39.695312 53.335938 39.125 53.132812 38.632812 C 53.039062 38.40625 52.84375 38.265625 52.617188 38.265625 C 52.394531 38.265625 52.199219 38.40625 52.105469 38.632812 C 51.9375 39.035156 51.632812 39.78125 51.121094 39.878906 C 50.90625 39.917969 50.636719 39.8125 50.421875 39.605469 C 50.101562 39.285156 50.199219 38.867188 50.230469 38.753906 C 50.234375 38.746094 50.238281 38.738281 50.242188 38.726562 L 50.316406 38.527344 L 50.277344 38.527344 C 50.289062 38.320312 50.207031 38.144531 50.058594 38.082031 C 49.929688 38.03125 49.746094 38.070312 49.601562 38.335938 C 49.339844 38.832031 49.324219 39.417969 49.5625 39.90625 C 49.785156 40.363281 50.203125 40.675781 50.707031 40.765625 C 51.433594 40.894531 52.089844 40.585938 52.617188 39.878906 C 53.070312 40.480469 53.613281 40.792969 54.210938 40.792969 C 54.316406 40.792969 54.421875 40.785156 54.53125 40.765625 C 55.035156 40.675781 55.453125 40.363281 55.675781 39.90625 C 55.914062 39.417969 55.898438 38.832031 55.636719 38.335938 C 55.484375 38.050781 55.28125 38.027344 55.152344 38.097656 Z M 55.152344 38.097656 " fill-opacity="1" fill-rule="nonzero"/></g><path fill="#c5c6c7" d="M 68.703125 45.1875 C 68.441406 44.890625 67.386719 44.089844 66.710938 45.398438 C 66.035156 46.707031 67.882812 48.015625 68.703125 48.015625 C 69.527344 48.015625 71.371094 46.707031 70.695312 45.398438 C 70.019531 44.089844 68.964844 44.890625 68.703125 45.1875 Z M 69.347656 42.984375 C 69.347656 42.582031 69.121094 42.257812 68.839844 42.257812 C 68.554688 42.257812 68.328125 42.582031 68.328125 42.984375 C 68.328125 43.382812 68.554688 43.707031 68.839844 43.707031 C 69.121094 43.707031 69.347656 43.382812 69.347656 42.984375 Z M 70.933594 42.695312 C 70.644531 42.652344 70.359375 42.917969 70.292969 43.289062 C 70.226562 43.660156 70.402344 43.996094 70.6875 44.042969 C 70.976562 44.085938 71.261719 43.820312 71.328125 43.445312 C 71.394531 43.074219 71.21875 42.738281 70.933594 42.695312 Z M 66.804688 44.078125 C 67.09375 43.992188 67.222656 43.625 67.09375 43.253906 C 66.960938 42.882812 66.621094 42.648438 66.332031 42.730469 C 66.042969 42.816406 65.914062 43.183594 66.046875 43.554688 C 66.175781 43.929688 66.515625 44.160156 66.804688 44.078125 Z M 66.804688 44.078125 " fill-opacity="1" fill-rule="nonzero"/><g clip-path="url(#56baf42843)"><path fill="#66fcf1" d="M 28.496094 23.769531 L 28.496094 53.769531 L 17.695312 53.769531 L 17.695312 46.570312 L 16.496094 46.570312 L 16.496094 45.371094 L 15.296875 45.371094 L 15.296875 53.769531 L 4.496094 53.769531 L 4.496094 23.769531 L 15.296875 23.769531 L 15.296875 32.167969 L 16.496094 32.167969 L 16.496094 33.371094 L 17.695312 33.371094 L 17.695312 23.769531 Z M 28.496094 23.769531 " fill-opacity="1" fill-rule="nonzero"/></g><path fill="#0b0c10" d="M 27.296875 24.96875 L 27.296875 52.570312 L 18.898438 52.570312 L 18.898438 45.371094 L 17.695312 45.371094 L 17.695312 44.167969 L 16.496094 44.167969 L 16.496094 42.96875 L 15.296875 42.96875 L 15.296875 41.769531 L 14.097656 41.769531 L 14.097656 52.570312 L 5.695312 52.570312 L 5.695312 24.96875 L 14.097656 24.96875 L 14.097656 33.371094 L 15.296875 33.371094 L 15.296875 34.570312 L 16.496094 34.570312 L 16.496094 35.769531 L 17.695312 35.769531 L 17.695312 36.96875 L 18.898438 36.96875 L 18.898438 24.96875 Z M 27.296875 24.96875 " fill-opacity="1" fill-rule="nonzero"/><path fill="#66fcf1" d="M 24.898438 26.167969 L 24.898438 51.371094 L 20.097656 51.371094 L 20.097656 44.167969 L 18.898438 44.167969 L 18.898438 42.96875 L 17.695312 42.96875 L 17.695312 41.769531 L 16.496094 41.769531 L 16.496094 40.570312 L 15.296875 40.570312 L 15.296875 39.371094 L 14.097656 39.371094 L 14.097656 38.167969 L 12.898438 38.167969 L 12.898438 36.96875 L 11.695312 36.96875 L 11.695312 51.371094 L 10.496094 51.371094 L 7.613281 50.371094 L 9.296875 26.167969 L 11.695312 26.167969 L 11.695312 33.371094 L 12.898438 33.371094 L 12.898438 34.570312 L 14.097656 34.570312 L 14.097656 35.769531 L 15.296875 35.769531 L 15.296875 36.96875 L 16.496094 36.96875 L 16.496094 38.167969 L 17.695312 38.167969 L 17.695312 39.371094 L 18.898438 39.371094 L 18.898438 40.570312 L 20.097656 40.570312 L 20.097656 26.167969 Z M 24.898438 26.167969 " fill-opacity="1" fill-rule="nonzero"/><path fill="#c5c6c7" d="M 9.296875 48.96875 L 9.296875 26.167969 L 6.898438 26.167969 L 6.898438 51.371094 L 10.496094 51.371094 L 10.496094 50.167969 L 9.296875 50.167969 Z M 9.296875 48.96875 " fill-opacity="1" fill-rule="nonzero"/><path fill="#45a29e" d="M 23.699219 28.570312 L 24.898438 28.570312 L 24.898438 27.371094 L 23.699219 27.371094 Z M 22.496094 41.769531 L 22.496094 42.96875 L 23.699219 42.96875 L 23.699219 40.570312 L 22.496094 40.570312 Z M 22.496094 32.167969 L 22.496094 34.570312 L 23.699219 34.570312 L 23.699219 30.96875 L 22.496094 30.96875 Z M 22.496094 29.769531 L 23.699219 29.769531 L 23.699219 28.570312 L 22.496094 28.570312 Z M 22.496094 26.167969 L 22.496094 27.371094 L 23.699219 27.371094 L 23.699219 26.167969 Z M 22.496094 26.167969 " fill-opacity="1" fill-rule="nonzero"/><g clip-path="url(#4499f9f5d8)"><path fill="#66fcf1" d="M 26.097656 23.769531 L 17.699219 23.769531 L 17.699219 33.371094 L 16.496094 33.371094 L 16.496094 32.167969 L 15.296875 32.167969 L 15.296875 23.769531 L 4.496094 23.769531 L 4.496094 53.769531 L 15.296875 53.769531 L 15.296875 45.371094 L 16.496094 45.371094 L 16.496094 46.570312 L 17.699219 46.570312 L 17.699219 53.769531 L 28.496094 53.769531 L 28.496094 23.769531 Z M 27.296875 26.167969 L 27.296875 52.570312 L 18.898438 52.570312 L 18.898438 45.371094 L 17.699219 45.371094 L 17.699219 44.167969 L 16.496094 44.167969 L 16.496094 42.96875 L 15.296875 42.96875 L 15.296875 41.769531 L 14.097656 41.769531 L 14.097656 52.570312 L 5.699219 52.570312 L 5.699219 24.96875 L 14.097656 24.96875 L 14.097656 33.371094 L 15.296875 33.371094 L 15.296875 34.570312 L 16.496094 34.570312 L 16.496094 35.769531 L 17.699219 35.769531 L 17.699219 36.96875 L 18.898438 36.96875 L 18.898438 24.96875 L 27.296875 24.96875 Z M 22.496094 42.96875 L 23.699219 42.96875 L 23.699219 45.371094 L 22.496094 45.371094 Z M 22.496094 34.570312 L 23.699219 34.570312 L 23.699219 38.167969 L 22.496094 38.167969 Z M 22.496094 34.570312 " fill-opacity="1" fill-rule="nonzero"/></g></svg>